<svg width="24px" height="24px" viewBox="0 0 24 24" fill="none" xmlns="http://www.w3.org/2000/svg">
<path fill-rule="evenodd" clip-rule="evenodd" d="M16.6465 2.2253C16.9469 2.52571 16.9469 3.01276 16.6465 3.31316L12.5439 7.41572C12.2435 7.71613 11.7565 7.71613 11.4561 7.41572L8.37915 4.3388C8.07875 4.0384 8.07875 3.55135 8.37915 3.25094C8.67955 2.95054 9.1666 2.95054 9.46701 3.25094L12 5.78394L15.5586 2.2253C15.859 1.9249 16.3461 1.9249 16.6465 2.2253Z" fill="#b3b6c7"/>
<path fill-rule="evenodd" clip-rule="evenodd" d="M16.6465 11.4561C16.9469 11.7565 16.9469 12.2435 16.6465 12.5439L13.5696 15.6209C13.2692 15.9213 12.7821 15.9213 12.4817 15.6209L10.9744 14.1135L8.44136 16.6465C8.14096 16.9469 7.65391 16.9469 7.35351 16.6465C7.0531 16.3461 7.0531 15.859 7.35351 15.5586L10.4304 12.4817C10.7308 12.1813 11.2179 12.1813 11.5183 12.4817L13.0256 13.9891L15.5586 11.4561C15.859 11.1557 16.3461 11.1557 16.6465 11.4561Z" fill="#b3b6c7"/>
<path fill-rule="evenodd" clip-rule="evenodd" d="M12 7.64103C9.81513 7.64103 6.82571 7.82729 4.97715 7.9599C4.37672 8.00297 3.9021 8.46549 3.84447 9.05892C3.70564 10.4883 3.53846 12.5306 3.53846 14.0513C3.53846 15.572 3.70564 17.6143 3.84447 19.0436C3.9021 19.6371 4.37672 20.0996 4.97715 20.1427C6.82571 20.2753 9.81513 20.4615 12 20.4615C14.1849 20.4615 17.1743 20.2753 19.0229 20.1427C19.6233 20.0996 20.0979 19.6371 20.1555 19.0436C20.2944 17.6143 20.4615 15.572 20.4615 14.0513C20.4615 12.5306 20.2944 10.4883 20.1555 9.05892C20.0979 8.46549 19.6233 8.00297 19.0229 7.9599C17.1743 7.82729 14.1849 7.64103 12 7.64103ZM4.86707 6.42538C6.71631 6.29272 9.75455 6.10256 12 6.10256C14.2455 6.10256 17.2837 6.29272 19.1329 6.42538C20.4758 6.52171 21.5561 7.56442 21.6868 8.91019C21.826 10.3433 22 12.4499 22 14.0513C22 15.6527 21.826 17.7593 21.6868 19.1924C21.5561 20.5381 20.4758 21.5809 19.1329 21.6772C17.2837 21.8098 14.2454 22 12 22C9.75455 22 6.7163 21.8098 4.86707 21.6772C3.52416 21.5809 2.44392 20.5381 2.31321 19.1924C2.17402 17.7593 2 15.6527 2 14.0513C2 12.4499 2.17402 10.3433 2.31321 8.91019C2.44392 7.56442 3.52416 6.52171 4.86707 6.42538Z" fill="#b3b6c7"/>
</svg>
